<svg xmlns="http://www.w3.org/2000/svg" width="48" height="48" viewBox="0 0 48 48"><g transform="translate(0 -1004.362)"><circle cx="24" cy="1028.362" r="24" fill="#ef4c45" fill-rule="evenodd"/><path fill="#df2209" style="line-height:normal;text-indent:0;text-align:start;text-decoration-line:none;text-decoration-style:solid;text-decoration-color:#000;text-transform:none;block-progression:tb;isolation:auto;mix-blend-mode:normal" d="M 26.492188 47.84375 A 23.999992 23.999992 0 0 0 28.080078 47.650391 A 23.999992 23.999992 0 0 0 30.419922 47.125 A 23.999992 23.999992 0 0 0 32.697266 46.369141 A 23.999992 23.999992 0 0 0 34.886719 45.388672 A 23.999992 23.999992 0 0 0 36.966797 44.195312 A 23.999992 23.999992 0 0 0 38.917969 42.800781 A 23.999992 23.999992 0 0 0 40.720703 41.216797 A 23.999992 23.999992 0 0 0 42.355469 39.460938 A 23.999992 23.999992 0 0 0 43.808594 37.550781 A 23.999992 23.999992 0 0 0 45.0625 35.505859 A 23.999992 23.999992 0 0 0 46.105469 33.345703 A 23.999992 23.999992 0 0 0 46.927734 31.091797 A 23.999992 23.999992 0 0 0 47.521484 28.767578 A 23.999992 23.999992 0 0 0 47.845703 26.634766 L 34.615234 13.404297 L 34.601562 13.390625 C 34.475586 13.264941 34.337407 13.152404 34.207031 13.03125 C 34.006665 12.845078 33.809978 12.653608 33.599609 12.478516 C 33.580002 12.462197 33.558755 12.447861 33.539062 12.431641 C 33.216589 12.166009 32.885321 11.912195 32.541016 11.673828 C 32.538805 11.672298 32.537368 11.669498 32.535156 11.667969 C 32.412254 11.582975 32.279835 11.511068 32.154297 11.429688 C 31.906234 11.268897 31.66026 11.105233 31.402344 10.958984 C 31.400322 10.957838 31.398507 10.956224 31.396484 10.955078 C 31.011129 10.736762 30.616658 10.535831 30.210938 10.351562 C 30.210938 10.351562 30.208984 10.351562 30.208984 10.351562 C 30.000788 10.257036 29.783485 10.178932 29.570312 10.09375 C 29.357478 10.008694 29.149176 9.9153262 28.931641 9.8398438 C 28.504561 9.6916488 28.068716 9.561 27.625 9.4511719 C 27.6218 9.4503799 27.618435 9.4500086 27.615234 9.4492188 C 27.169408 9.3391841 26.71647 9.24903 26.255859 9.1796875 C 26.254589 9.1794962 26.253224 9.1798785 26.251953 9.1796875 C 25.790031 9.1102688 25.320481 9.0616689 24.845703 9.0351562 C 24.370923 9.0081563 23.906253 9.0171563 23.439453 9.0351562 C 16.437513 9.3001563 10.431913 14.412406 9.2207031 21.441406 A 0.50871324 0.50871324 0 0 0 9.8144531 22.035156 L 11.785156 24.005859 L 9.5644531 24.005859 L 9.5644531 24.007812 A 0.50004995 0.50004995 0 0 0 9.5019531 24.007812 A 0.50004995 0.50004995 0 0 0 9.4082031 24.007812 L 9.4082031 24.003906 A 0.50004995 0.50004995 0 0 0 9.1582031 24.160156 A 0.50004998 0.50004998 0 0 0 9.1582031 24.191406 A 0.50004995 0.50004995 0 0 0 9.0644531 24.285156 A 0.50004998 0.50004998 0 0 0 9.0644531 24.316406 A 0.50004995 0.50004995 0 0 0 9.0332031 24.378906 A 0.50004998 0.50004998 0 0 0 9.0332031 24.410156 A 0.50004995 0.50004995 0 0 0 9.0019531 24.535156 C 9.010785 25.029081 9.0432357 25.515382 9.0996094 25.996094 C 9.0996094 25.996094 9.0996094 25.998047 9.0996094 25.998047 C 9.1559696 26.478096 9.2364138 26.951401 9.3378906 27.416016 C 9.3653845 27.541924 9.4067998 27.662439 9.4375 27.787109 C 9.5204603 28.123942 9.603236 28.461877 9.7089844 28.789062 C 9.8533491 29.235727 10.018274 29.672873 10.203125 30.099609 C 10.294322 30.310116 10.405227 30.509595 10.505859 30.714844 C 10.609573 30.926396 10.702965 31.143934 10.816406 31.349609 C 10.816406 31.349609 10.818359 31.351562 10.818359 31.351562 C 11.041512 31.755976 11.281976 32.149311 11.541016 32.529297 C 11.541016 32.529297 11.542969 32.53125 11.542969 32.53125 C 11.802066 32.911169 12.078407 33.277617 12.371094 33.630859 C 12.372255 33.632261 12.373838 33.633364 12.375 33.634766 C 12.667812 33.98789 12.976678 34.328152 13.300781 34.652344 L 13.302734 34.654297 L 26.492188 47.84375 z " color="#000" font-family="sans-serif" font-weight="400" transform="translate(0 1004.362)"/><path fill="#fff" style="line-height:normal;text-indent:0;text-align:start;text-decoration-line:none;text-decoration-style:solid;text-decoration-color:#000;text-transform:none;block-progression:tb;isolation:auto;mix-blend-mode:normal" d="m 23.439862,1013.3979 c -7.00194,0.265 -13.00754,5.3772 -14.2187502,12.4062 a 0.50871324,0.50871324 0 1 0 1.0000002,0.1875 c 1.20709,-7.0052 7.4651,-11.9901 14.5625,-11.5937 7.09742,0.3964 12.76798,6.0289 13.1875,13.125 0.4195,7.0961 -4.56123,13.3951 -11.5625,14.625 a 0.50004995,0.50004995 0 1 0 0.1875,0.9687 c 7.49352,-1.3163 12.82399,-8.0612 12.375,-15.6562 -0.44902,-7.595 -6.52856,-13.6383 -14.125,-14.0625 -0.47478,-0.027 -0.93945,-0.018 -1.40625,0 z m 0.46875,1.9687 a 0.50004998,0.50004998 0 0 0 -0.40625,0.5 l 0,1 a 0.50004998,0.50004998 0 1 0 1,0 l 0,-1 a 0.50004998,0.50004998 0 0 0 -0.5,-0.5 0.50004998,0.50004998 0 0 0 -0.0937,0 z m 0.0625,3 a 0.50004998,0.50004998 0 0 0 -0.46875,0.5 l 0,4 a 0.50004998,0.50004998 0 1 0 1,0 l 0,-4 a 0.50004998,0.50004998 0 0 0 -0.5,-0.5 0.50004998,0.50004998 0 0 0 -0.0312,0 z m -4.25,6.4688 c -1.30581,0 -2,0.7708 -2,2.125 l 0,0.8437 1.28125,0 0,-0.9062 c 0,-0.6045 0.26432,-0.8438 0.6875,-0.8438 0.42318,0 0.6875,0.2071 0.6875,0.9688 0,2.4424 -2.65625,2.853 -2.65625,5.3437 l 0,1.0313 3.84375,0 0,-1.1875 -2.5,0 c -0.0121,-0.06 0,-0.127 0,-0.1875 0,-1.3904 2.625,-2.4025 2.625,-5.0625 0,-1.3542 -0.66294,-2.125 -1.96875,-2.125 z m 4.90625,0.094 -2.40625,5.75 0,1.1875 2.5625,0 0,1.5313 1.3125,0 0,-1.5313 0.625,0 0,-1.1875 -0.625,0 0,-5.75 -1.46875,0 z m 0.15625,2.5625 0,3.1875 -1.34375,0 1.34375,-3.1875 z m 2.71875,0.375 a 0.50219246,0.50219246 0 0 0 0.0937,1 l 5.90625,0 a 0.50004998,0.50004998 0 1 0 0,-1 l -5.90625,0 a 0.50004998,0.50004998 0 0 0 -0.0937,0 z m 7.90625,0 a 0.50219246,0.50219246 0 0 0 0.0937,1 l 1,0 a 0.50004995,0.50004995 0 1 0 0,-1 l -1,0 a 0.50004995,0.50004995 0 0 0 -0.0937,0 z m -26.0000002,0.5 a 0.50004995,0.50004995 0 0 0 -0.25,0.1563 0.50004998,0.50004998 0 0 0 0,0.031 0.50004995,0.50004995 0 0 0 -0.0937,0.094 0.50004998,0.50004998 0 0 0 0,0.031 0.50004995,0.50004995 0 0 0 -0.0312,0.062 0.50004998,0.50004998 0 0 0 0,0.031 0.50004995,0.50004995 0 0 0 -0.0312,0.125 c 0.14131,7.9028 6.5153402,14.259 14.4062502,14.4375 a 0.50004998,0.50004998 0 0 0 0.1875,0 0.50007724,0.50007724 0 0 0 0.28125,-0.125 0.50004998,0.50004998 0 0 0 0.0625,-0.094 0.50007724,0.50007724 0 0 0 0.0312,-0.031 0.50004998,0.50004998 0 0 0 0.0312,-0.094 0.50007724,0.50007724 0 0 0 0,-0.2812 l 0,-4.7188 a 0.50054912,0.50054912 0 0 0 0,-0.1875 0.50004998,0.50004998 0 0 0 -0.0937,-0.2187 0.50054912,0.50054912 0 0 0 0,-0.031 0.50004998,0.50004998 0 0 0 -0.0312,0 0.50054912,0.50054912 0 0 0 0,-0.031 0.50004998,0.50004998 0 0 0 -0.28125,-0.1563 0.50054912,0.50054912 0 0 0 -0.125,0 c -1.09789,0.052 -2.18336,-0.2591 -3.09375,-0.875 a 0.50004995,0.50004995 0 0 0 -0.0312,0 0.50004998,0.50004998 0 0 0 0,-0.031 0.50004995,0.50004995 0 0 0 -0.0312,0 0.50004998,0.50004998 0 0 0 -0.0312,0 0.50004995,0.50004995 0 0 0 0,-0.031 0.50004998,0.50004998 0 0 0 -0.25,-0.062 0.50004998,0.50004998 0 0 0 -0.4375,0.2813 l -0.0312,0.031 -0.71875,1.4375 c -1.95626,-1.0165 -3.5499,-2.6049 -4.5625,-4.5625 l 1.46875,-0.7812 a 0.50004998,0.50004998 0 0 0 0.25,-0.5313 0.50004995,0.50004995 0 0 0 0,-0.031 0.50004998,0.50004998 0 0 0 -0.0312,-0.062 0.50004995,0.50004995 0 0 0 0,-0.031 0.50004998,0.50004998 0 0 0 -0.0312,-0.031 0.50004995,0.50004995 0 0 0 -0.0312,-0.062 0.50004998,0.50004998 0 0 0 0,-0.031 c -0.61766,-0.9131 -0.92915,-1.9926 -0.875,-3.0937 a 0.50004995,0.50004995 0 0 0 -0.563,-0.5313 l -4.9062502,0 a 0.50004995,0.50004995 0 0 0 -0.0625,0 0.50004995,0.50004995 0 0 0 -0.0937,0 z m 0.6250002,1 4.03125,0 c 0.0362,0.9791 0.29628,1.9294 0.78125,2.7813 l -1.46875,0.7187 a 0.50004992,0.50004992 0 0 0 -0.125,0.094 0.50011061,0.50011061 0 0 0 -0.0312,0.031 0.50004992,0.50004992 0 0 0 -0.0625,0.094 0.50011061,0.50011061 0 0 0 0,0.031 0.50004992,0.50004992 0 0 0 -0.0312,0.062 0.50011061,0.50011061 0 0 0 0,0.031 0.50004992,0.50004992 0 0 0 0,0.125 0.50011061,0.50011061 0 0 0 0,0.031 0.50004992,0.50004992 0 0 0 0,0.062 0.50011061,0.50011061 0 0 0 0,0.031 0.50004992,0.50004992 0 0 0 0.0312,0.062 c 0.004,0.01 -0.004,0.023 0,0.031 a 0.50011061,0.50011061 0 0 0 0.0937,0.125 c 1.14104,2.3793 3.06414,4.2842 5.4375,5.4375 a 0.50010426,0.50010426 0 0 0 0.125,0.094 c 0.008,0 0.0229,0 0.0312,0 a 0.50010426,0.50010426 0 0 0 0.0937,0.062 0.50004992,0.50004992 0 0 0 0.0312,0 0.50010426,0.50010426 0 0 0 0.0625,0 0.50004992,0.50004992 0 0 0 0.0312,0 0.50010426,0.50010426 0 0 0 0.0625,0 0.50004992,0.50004992 0 0 0 0.0625,-0.031 0.50010426,0.50010426 0 0 0 0.0312,0 0.50004992,0.50004992 0 0 0 0.125,-0.062 0.50010426,0.50010426 0 0 0 0.0312,0 0.50004992,0.50004992 0 0 0 0.0937,-0.125 0.50010426,0.50010426 0 0 0 0,-0.031 0.50004992,0.50004992 0 0 0 0.0312,-0.031 l 0.75,-1.4062 c 0.84319,0.4751 1.78326,0.7124 2.75,0.75 l 0,3.9687 c -6.99002,-0.3815 -12.59153,-5.9435 -12.96835,-12.9375 z" color="#000" font-family="sans-serif" font-weight="400" overflow="visible"/></g></svg>